<?xml version="1.0" standalone="no"?>
<!DOCTYPE svg PUBLIC "-//W3C//DTD SVG 20010904//EN"
 "http://www.w3.org/TR/2001/REC-SVG-20010904/DTD/svg10.dtd">
<svg version="1.0" xmlns="http://www.w3.org/2000/svg"
 width="1536.000000pt" height="1536.000000pt" viewBox="0 0 1536.000000 1536.000000"
 preserveAspectRatio="xMidYMid meet">

<g transform="translate(0.000000,1536.000000) scale(0.100000,-0.100000)"
fill="#000000" stroke="none">
<path d="M10755 14868 c-11 -6 -29 -19 -40 -28 -14 -13 -42 -19 -97 -22 -63
-3 -81 -7 -101 -26 -19 -18 -35 -22 -83 -22 -71 0 -120 -13 -148 -39 -12 -10
-42 -21 -68 -24 -29 -3 -61 -14 -80 -29 -18 -14 -50 -28 -71 -31 -21 -3 -51
-17 -68 -31 -17 -14 -39 -26 -48 -26 -10 0 -35 -11 -55 -25 -21 -14 -52 -31
-69 -39 -18 -7 -38 -20 -46 -29 -7 -10 -23 -17 -35 -17 -27 0 -53 -18 -111
-77 -52 -54 -59 -78 -54 -198 l4 -85 2267 -2268 2268 -2267 85 -4 c121 -5 146
2 198 54 56 55 77 84 77 108 0 10 11 33 25 51 14 18 25 37 25 42 0 5 14 29 30
53 17 24 30 52 30 62 0 9 12 31 26 48 14 17 28 47 31 68 3 21 17 53 31 71 15
19 26 51 29 80 3 26 14 56 24 68 26 28 39 77 39 148 0 48 4 64 22 83 18 20 23
39 27 101 3 63 8 82 27 105 13 16 26 38 29 50 3 12 4 326 3 698 l-3 675 -27
33 c-25 29 -28 40 -28 111 0 68 -3 82 -24 107 -18 22 -24 44 -28 101 -4 54
-11 81 -27 103 -12 16 -29 48 -36 70 -8 22 -24 52 -35 66 -14 18 -20 41 -20
73 0 36 -7 56 -30 88 -16 23 -30 51 -30 61 0 11 -11 32 -24 48 -13 15 -27 43
-31 61 -3 18 -17 45 -29 60 -12 15 -28 42 -35 60 -8 18 -26 41 -41 52 -16 11
-35 39 -43 64 -8 24 -37 73 -64 108 -27 34 -54 76 -61 92 -18 41 -46 76 -136
172 -44 46 -86 98 -93 115 -16 39 -212 234 -245 244 -13 4 -62 44 -109 89 -97
91 -135 121 -176 139 -15 6 -53 30 -83 52 -30 22 -79 51 -108 65 -30 13 -62
36 -73 51 -10 14 -33 32 -51 40 -18 7 -45 23 -60 35 -15 12 -42 26 -60 29 -18
4 -46 18 -61 31 -16 13 -37 24 -48 24 -10 0 -38 14 -61 30 -32 23 -52 30 -88
30 -32 0 -55 6 -73 20 -14 11 -44 27 -66 35 -22 7 -54 24 -70 36 -22 16 -49
23 -103 27 -57 4 -79 10 -101 28 -25 21 -39 24 -107 24 -71 0 -82 3 -111 28
l-33 27 -685 2 c-491 2 -692 -1 -706 -9z"/>
<path d="M8893 13807 c-53 -22 -111 -85 -137 -149 -7 -16 -44 -61 -83 -102
-49 -51 -72 -83 -77 -107 -4 -23 -23 -51 -56 -84 -31 -31 -52 -61 -56 -81 -3
-17 -29 -58 -60 -93 -30 -34 -54 -70 -54 -79 0 -9 -14 -37 -30 -61 -17 -24
-30 -51 -30 -59 0 -9 -12 -33 -26 -53 -14 -21 -28 -57 -31 -81 -4 -24 -16 -59
-29 -78 -12 -19 -25 -51 -29 -70 -4 -19 -12 -44 -19 -55 -7 -11 -18 -40 -25
-65 -7 -25 -21 -62 -32 -82 -14 -27 -19 -57 -19 -109 0 -63 -4 -78 -27 -113
-26 -37 -28 -47 -31 -163 -3 -110 -6 -129 -26 -158 -21 -31 -23 -48 -30 -243
-4 -115 -4 -257 0 -313 l7 -104 394 -400 c216 -220 402 -408 411 -417 9 -9
577 -574 1262 -1256 l1245 -1240 104 -6 c56 -4 198 -4 313 0 195 7 212 9 243
30 29 20 48 23 158 26 116 3 126 5 163 30 34 24 50 28 108 28 46 0 82 6 110
19 23 10 61 25 86 32 25 7 54 18 65 25 11 7 36 15 55 19 19 4 51 17 70 29 19
13 54 25 78 29 24 3 60 17 81 31 20 14 44 26 53 26 8 0 34 14 56 30 23 16 51
30 61 30 11 0 48 24 82 54 35 31 76 57 93 60 20 4 50 25 81 56 32 32 61 52 82
56 23 4 57 28 106 76 40 38 86 75 102 82 17 7 54 31 83 52 70 52 92 109 92
235 0 69 -4 98 -19 127 -25 46 -4604 4624 -4648 4646 -51 25 -204 21 -270 -7z"/>
<path d="M7795 10841 c-24 -10 -113 -105 -137 -146 -39 -66 -97 -137 -175
-213 -46 -44 -89 -94 -97 -112 -7 -18 -57 -77 -112 -132 -89 -90 -164 -187
-164 -211 0 -5 -48 -60 -107 -122 -128 -134 -156 -168 -176 -215 -8 -19 -59
-79 -113 -132 -114 -111 -146 -149 -167 -198 -8 -19 -71 -92 -139 -161 -95
-97 -127 -135 -132 -160 -4 -25 -31 -58 -102 -129 -94 -93 -121 -127 -177
-219 -16 -25 -82 -100 -148 -167 -83 -84 -119 -128 -119 -144 0 -16 -37 -61
-124 -149 -90 -91 -132 -141 -150 -180 -18 -40 -59 -89 -151 -181 -69 -70
-125 -135 -125 -144 0 -10 -37 -57 -82 -106 -122 -130 -173 -191 -193 -230
-26 -50 -67 -99 -172 -206 -51 -52 -99 -109 -107 -128 -8 -18 -47 -68 -87
-110 -111 -115 -155 -167 -182 -215 -14 -23 -54 -75 -91 -114 -140 -152 -174
-193 -191 -227 -10 -19 -58 -77 -108 -129 -49 -52 -98 -113 -108 -135 -10 -24
-70 -94 -140 -166 -87 -89 -127 -137 -138 -167 -11 -29 -46 -73 -107 -136 -51
-51 -110 -117 -132 -147 -22 -30 -56 -75 -74 -100 -18 -24 -79 -92 -135 -151
-77 -79 -103 -113 -103 -133 0 -20 -30 -54 -131 -153 -72 -71 -138 -142 -145
-160 -25 -57 -63 -106 -163 -208 -55 -55 -105 -115 -112 -132 -8 -18 -58 -77
-111 -131 -102 -102 -133 -141 -169 -207 -30 -56 -81 -118 -172 -209 -44 -44
-86 -95 -93 -113 -8 -18 -58 -77 -112 -131 -53 -53 -105 -109 -115 -122 -10
-14 -29 -40 -42 -59 -22 -30 -25 -44 -25 -125 0 -70 4 -97 18 -116 22 -33
1569 -1579 1602 -1602 19 -14 46 -18 116 -18 81 0 95 3 125 25 19 13 45 32 59
42 14 10 69 62 123 116 54 53 113 103 131 111 19 8 69 49 112 93 92 91 153
142 209 172 66 36 105 67 207 169 54 53 113 103 131 111 17 7 77 57 132 112
102 100 151 138 208 163 18 7 89 73 160 145 99 102 133 131 154 131 19 0 49
23 117 89 90 88 164 150 268 224 29 21 96 81 148 133 68 68 105 97 132 105 28
7 71 42 165 135 74 72 145 132 169 143 22 10 83 59 135 108 52 50 110 98 129
108 35 17 80 55 224 189 41 38 94 80 118 93 47 27 99 71 215 182 43 41 93 80
111 88 17 7 74 55 126 106 107 105 156 146 206 172 39 20 100 71 230 193 49
45 96 82 106 82 9 0 74 56 144 125 92 92 141 133 181 151 39 18 89 60 180 150
88 87 133 124 149 124 16 0 61 37 149 124 69 68 144 133 166 145 66 36 104 67
206 168 110 109 116 113 146 113 15 0 64 42 150 126 70 70 144 133 163 141 49
21 87 53 198 167 53 54 112 105 130 112 49 22 138 93 227 184 44 45 97 90 117
101 68 35 108 67 207 165 54 53 113 103 131 110 17 8 76 58 130 112 70 70 109
102 137 110 26 8 64 38 123 97 l85 85 0 110 0 110 -1418 1417 -1417 1418 -98
2 c-53 2 -106 -1 -117 -6z"/>
<path d="M1770 2517 c-32 -18 -145 -130 -189 -187 -19 -25 -61 -67 -93 -95
-32 -27 -145 -137 -251 -244 -219 -222 -286 -289 -554 -554 -150 -148 -194
-198 -199 -222 -3 -18 -4 -85 -2 -149 l3 -116 233 -232 232 -233 116 -3 c64
-2 131 -1 149 2 25 5 75 49 221 196 104 104 204 208 223 232 19 24 61 66 93
93 77 67 420 410 483 483 28 32 69 73 93 92 23 18 76 67 117 108 85 86 89 95
83 236 l-3 95 -100 103 c-55 57 -114 113 -132 125 -17 12 -39 35 -49 50 -10
15 -65 73 -122 128 l-103 100 -112 3 c-82 2 -119 -1 -137 -11z"/>
</g>
</svg>
